{
  "accessors": [
    {
      "bufferView": 2,
      "componentType": 5126,
      "count": 65532,
      "max": [
        2.2840957641601563,
        1.3348760604858398,
        0.08995521068572998
      ],
      "min": [
        -2.2839365005493164,
        -1.3117001056671143,
        -0.5099243521690369
      ],
      "type": "VEC3"
    },
    {
      "bufferView": 2,
      "byteOffset": 786384,
      "componentType": 5126,
      "count": 65532,
      "max": [
        0.9999996423721313,
        1.0,
        1.0
      ],
      "min": [
        -0.9999999403953552,
        -1.0,
        -1.0
      ],
      "type": "VEC3"
    },
    {
      "bufferView": 3,
      "componentType": 5126,
      "count": 65532,
      "max": [
        1.0,
        0.9459107518196106,
        1.0,
        1.0
      ],
      "min": [
        -0.7142449617385864,
        -0.9798370003700256,
        -0.9999980330467224,
        -1.0
      ],
      "type": "VEC4"
    },
    {
      "bufferView": 1,
      "componentType": 5126,
      "count": 65532,
      "max": [
        0.6938798427581787,
        0.8120778799057007
      ],
      "min": [
        0.024698352441191673,
        0.014866230078041553
      ],
      "type": "VEC2"
    },
    {
      "bufferView": 1,
      "byteOffset": 524256,
      "componentType": 5126,
      "count": 65532,
      "max": [
        0.6938798427581787,
        0.8120778799057007
      ],
      "min": [
        0.024698352441191673,
        0.014866230078041553
      ],
      "type": "VEC2"
    },
    {
      "bufferView": 1,
      "byteOffset": 1048512,
      "componentType": 5126,
      "count": 65532,
      "max": [
        0.6938798427581787,
        0.8120778799057007
      ],
      "min": [
        0.024698352441191673,
        0.014866230078041553
      ],
      "type": "VEC2"
    },
    {
      "bufferView": 0,
      "componentType": 5125,
      "count": 371037,
      "type": "SCALAR"
    },
    {
      "bufferView": 2,
      "byteOffset": 1572768,
      "componentType": 5126,
      "count": 65532,
      "max": [
        2.2701454162597656,
        1.3054050207138062,
        0.09025615453720093
      ],
      "min": [
        -2.2848405838012695,
        -1.3117001056671143,
        -0.5025101900100708
      ],
      "type": "VEC3"
    },
    {
      "bufferView": 2,
      "byteOffset": 2359152,
      "componentType": 5126,
      "count": 65532,
      "max": [
        0.9999999403953552,
        0.9999998211860657,
        1.0
      ],
      "min": [
        -0.9999999403953552,
        -0.9999575018882751,
        -1.0
      ],
      "type": "VEC3"
    },
    {
      "bufferView": 3,
      "byteOffset": 1048512,
      "componentType": 5126,
      "count": 65532,
      "max": [
        1.0,
        0.9989618062973022,
        0.9999955892562866,
        1.0
      ],
      "min": [
        -0.7125806212425232,
        -0.95919269323349,
        -1.0,
        1.0
      ],
      "type": "VEC4"
    },
    {
      "bufferView": 1,
      "byteOffset": 1572768,
      "componentType": 5126,
      "count": 65532,
      "max": [
        0.6938798427581787,
        0.8120778799057007
      ],
      "min": [
        0.024698352441191673,
        0.017003890126943588
      ],
      "type": "VEC2"
    },
    {
      "bufferView": 1,
      "byteOffset": 2097024,
      "componentType": 5126,
      "count": 65532,
      "max": [
        0.6938798427581787,
        0.8120778799057007
      ],
      "min": [
        0.024698352441191673,
        0.017003890126943588
      ],
      "type": "VEC2"
    },
    {
      "bufferView": 1,
      "byteOffset": 2621280,
      "componentType": 5126,
      "count": 65532,
      "max": [
        0.6938798427581787,
        0.8120778799057007
      ],
      "min": [
        0.024698352441191673,
        0.017003890126943588
      ],
      "type": "VEC2"
    },
    {
      "bufferView": 0,
      "byteOffset": 1484148,
      "componentType": 5125,
      "count": 378198,
      "type": "SCALAR"
    },
    {
      "bufferView": 2,
      "byteOffset": 3145536,
      "componentType": 5126,
      "count": 16932,
      "max": [
        2.2795825004577637,
        1.3259745836257935,
        0.08322256803512573
      ],
      "min": [
        -2.268110752105713,
        -1.1591954231262207,
        -1.5058302879333496
      ],
      "type": "VEC3"
    },
    {
      "bufferView": 2,
      "byteOffset": 3348720,
      "componentType": 5126,
      "count": 16932,
      "max": [
        1.0,
        1.0,
        1.0
      ],
      "min": [
        -1.0,
        -1.0,
        -1.0
      ],
      "type": "VEC3"
    },
    {
      "bufferView": 3,
      "byteOffset": 2097024,
      "componentType": 5126,
      "count": 16932,
      "max": [
        1.0,
        1.0,
        0.9999992847442627,
        1.0
      ],
      "min": [
        -1.0,
        -1.0,
        -0.9999983906745911,
        -1.0
      ],
      "type": "VEC4"
    },
    {
      "bufferView": 1,
      "byteOffset": 3145536,
      "componentType": 5126,
      "count": 16932,
      "max": [
        0.9946491718292236,
        0.999853253364563
      ],
      "min": [
        0.0001467303081881255,
        0.0001466891262680292
      ],
      "type": "VEC2"
    },
    {
      "bufferView": 1,
      "byteOffset": 3280992,
      "componentType": 5126,
      "count": 16932,
      "max": [
        0.9946491718292236,
        0.999853253364563
      ],
      "min": [
        0.0001467303081881255,
        0.0001466891262680292
      ],
      "type": "VEC2"
    },
    {
      "bufferView": 1,
      "byteOffset": 3416448,
      "componentType": 5126,
      "count": 16932,
      "max": [
        0.9946491718292236,
        0.999853253364563
      ],
      "min": [
        0.0001467303081881255,
        0.0001466891262680292
      ],
      "type": "VEC2"
    },
    {
      "bufferView": 0,
      "byteOffset": 2996940,
      "componentType": 5125,
      "count": 84321,
      "type": "SCALAR"
    }
  ],
  "asset": {
    "extras": {
      "author": "AMMediaGames (https://sketchfab.com/AMMediaGames)",
      "license": "CC-BY-4.0 (http://creativecommons.org/licenses/by/4.0/)",
      "source": "https://sketchfab.com/3d-models/large-dining-table-with-tablecloth-free-model-215bb2ccb329408c99ce6404f69ef6c8",
      "title": "Large Dining Table With TableCloth Free Model"
    },
    "generator": "Sketchfab-16.10.0",
    "version": "2.0"
  },
  "bufferViews": [
    {
      "buffer": 0,
      "byteLength": 3334224,
      "name": "floatBufferViews",
      "target": 34963
    },
    {
      "buffer": 0,
      "byteLength": 3551904,
      "byteOffset": 3334224,
      "byteStride": 8,
      "name": "floatBufferViews",
      "target": 34962
    },
    {
      "buffer": 0,
      "byteLength": 3551904,
      "byteOffset": 6886128,
      "byteStride": 12,
      "name": "floatBufferViews",
      "target": 34962
    },
    {
      "buffer": 0,
      "byteLength": 2367936,
      "byteOffset": 10438032,
      "byteStride": 16,
      "name": "floatBufferViews",
      "target": 34962
    }
  ],
  "buffers": [
    {
      "byteLength": 12805968,
      "uri": "scene.bin"
    }
  ],
  "images": [
    {
      "uri": "textures/Material.001_baseColor.png"
    },
    {
      "uri": "textures/Material.001_metallicRoughness.png"
    },
    {
      "uri": "textures/Material.001_normal.png"
    }
  ],
  "materials": [
    {
      "doubleSided": true,
      "name": "Material.001",
      "normalTexture": {
        "index": 2,
        "texCoord": 1
      },
      "pbrMetallicRoughness": {
        "baseColorTexture": {
          "index": 0
        },
        "metallicRoughnessTexture": {
          "index": 1
        }
      }
    }
  ],
  "meshes": [
    {
      "name": "Plane.003_Material.001_0",
      "primitives": [
        {
          "attributes": {
            "NORMAL": 1,
            "POSITION": 0,
            "TANGENT": 2,
            "TEXCOORD_0": 3,
            "TEXCOORD_1": 4,
            "TEXCOORD_2": 5
          },
          "indices": 6,
          "material": 0,
          "mode": 4
        }
      ]
    },
    {
      "name": "Plane.003_Material.001_0",
      "primitives": [
        {
          "attributes": {
            "NORMAL": 8,
            "POSITION": 7,
            "TANGENT": 9,
            "TEXCOORD_0": 10,
            "TEXCOORD_1": 11,
            "TEXCOORD_2": 12
          },
          "indices": 13,
          "material": 0,
          "mode": 4
        }
      ]
    },
    {
      "name": "Plane.003_Material.001_0",
      "primitives": [
        {
          "attributes": {
            "NORMAL": 15,
            "POSITION": 14,
            "TANGENT": 16,
            "TEXCOORD_0": 17,
            "TEXCOORD_1": 18,
            "TEXCOORD_2": 19
          },
          "indices": 20,
          "material": 0,
          "mode": 4
        }
      ]
    }
  ],
  "nodes": [
    {
      "children": [
        1
      ],
      "matrix": [
        1.0,
        0.0,
        0.0,
        0.0,
        0.0,
        2.220446049250313e-16,
        -1.0,
        0.0,
        0.0,
        1.0,
        2.220446049250313e-16,
        0.0,
        0.0,
        0.0,
        0.0,
        1.0
      ],
      "name": "Sketchfab_model"
    },
    {
      "children": [
        2
      ],
      "matrix": [
        0.009999999776482582,
        0.0,
        0.0,
        0.0,
        0.0,
        0.0,
        0.009999999776482582,
        0.0,
        0.0,
        -0.009999999776482582,
        0.0,
        0.0,
        0.0,
        0.0,
        0.0,
        1.0
      ],
      "name": "aff884e0693548758889a5e9b1dcf154.fbx"
    },
    {
      "children": [
        3
      ],
      "name": "RootNode"
    },
    {
      "children": [
        4,
        5,
        6
      ],
      "matrix": [
        100.0,
        0.0,
        0.0,
        0.0,
        0.0,
        -1.629206793918314e-05,
        -99.99999999999868,
        0.0,
        0.0,
        99.99999999999868,
        -1.629206793918314e-05,
        0.0,
        0.0,
        170.0,
        0.0,
        1.0
      ],
      "name": "Plane.003"
    },
    {
      "mesh": 0,
      "name": "Plane.003_Material.001_0"
    },
    {
      "mesh": 1,
      "name": "Plane.003_Material.001_0"
    },
    {
      "mesh": 2,
      "name": "Plane.003_Material.001_0"
    }
  ],
  "samplers": [
    {
      "magFilter": 9729,
      "minFilter": 9987,
      "wrapS": 10497,
      "wrapT": 10497
    }
  ],
  "scene": 0,
  "scenes": [
    {
      "name": "Sketchfab_Scene",
      "nodes": [
        0
      ]
    }
  ],
  "textures": [
    {
      "sampler": 0,
      "source": 0
    },
    {
      "sampler": 0,
      "source": 1
    },
    {
      "sampler": 0,
      "source": 2
    }
  ]
}
