{
  "accessors": [
    {
      "bufferView": 2,
      "componentType": 5126,
      "count": 1193,
      "max": [
        134.88949584960938,
        -154.7393035888672,
        432.9604797363281
      ],
      "min": [
        -105.62830352783203,
        -652.4309692382813,
        295.3213806152344
      ],
      "type": "VEC3"
    },
    {
      "bufferView": 2,
      "byteOffset": 14316,
      "componentType": 5126,
      "count": 1193,
      "max": [
        0.9979464411735535,
        0.9984745979309082,
        0.9999973177909851
      ],
      "min": [
        -0.9998751282691956,
        -0.9998728632926941,
        -0.9973384141921997
      ],
      "type": "VEC3"
    },
    {
      "bufferView": 1,
      "componentType": 5126,
      "count": 1193,
      "max": [
        0.9288010001182556,
        0.9823275208473206
      ],
      "min": [
        0.206394761800766,
        0.4415251910686493
      ],
      "type": "VEC2"
    },
    {
      "bufferView": 0,
      "componentType": 5125,
      "count": 6585,
      "type": "SCALAR"
    },
    {
      "bufferView": 2,
      "byteOffset": 28632,
      "componentType": 5126,
      "count": 342,
      "max": [
        106.0323715209961,
        -308.0982971191406,
        507.6440124511719
      ],
      "min": [
        9.632800102233887,
        -379.14483642578125,
        411.6585693359375
      ],
      "type": "VEC3"
    },
    {
      "bufferView": 2,
      "byteOffset": 32736,
      "componentType": 5126,
      "count": 342,
      "max": [
        0.939786970615387,
        0.9987993836402893,
        0.9917031526565552
      ],
      "min": [
        -0.9192568063735962,
        -0.4763611853122711,
        -0.9924011826515198
      ],
      "type": "VEC3"
    },
    {
      "bufferView": 1,
      "byteOffset": 9544,
      "componentType": 5126,
      "count": 342,
      "max": [
        0.41130000352859497,
        0.46369999647140503
      ],
      "min": [
        0.18469999730587006,
        0.30140000581741333
      ],
      "type": "VEC2"
    },
    {
      "bufferView": 0,
      "byteOffset": 26340,
      "componentType": 5125,
      "count": 1584,
      "type": "SCALAR"
    },
    {
      "bufferView": 2,
      "byteOffset": 36840,
      "componentType": 5126,
      "count": 337,
      "max": [
        108.5311279296875,
        -267.8721618652344,
        436.74267578125
      ],
      "min": [
        61.47145080566406,
        -314.8547668457031,
        405.6343994140625
      ],
      "type": "VEC3"
    },
    {
      "bufferView": 2,
      "byteOffset": 40884,
      "componentType": 5126,
      "count": 337,
      "max": [
        0.9985066056251526,
        0.9970207214355469,
        0.9997971057891846
      ],
      "min": [
        -0.9985458850860596,
        -0.9964601397514343,
        -0.7996825575828552
      ],
      "type": "VEC3"
    },
    {
      "bufferView": 1,
      "byteOffset": 12280,
      "componentType": 5126,
      "count": 337,
      "max": [
        0.9863330721855164,
        0.5611148476600647
      ],
      "min": [
        0.7411710619926453,
        0.31563812494277954
      ],
      "type": "VEC2"
    },
    {
      "bufferView": 0,
      "byteOffset": 32676,
      "componentType": 5125,
      "count": 1920,
      "type": "SCALAR"
    },
    {
      "bufferView": 2,
      "byteOffset": 44928,
      "componentType": 5126,
      "count": 669,
      "max": [
        99.2984390258789,
        -309.84515380859375,
        504.56060791015625
      ],
      "min": [
        -9.112178802490234,
        -441.7431640625,
        396.6867980957031
      ],
      "type": "VEC3"
    },
    {
      "bufferView": 2,
      "byteOffset": 52956,
      "componentType": 5126,
      "count": 669,
      "max": [
        0.9970130324363708,
        0.9856956601142883,
        0.9926612973213196
      ],
      "min": [
        -0.9967128038406372,
        -0.99662184715271,
        -0.9987003803253174
      ],
      "type": "VEC3"
    },
    {
      "bufferView": 1,
      "byteOffset": 14976,
      "componentType": 5126,
      "count": 669,
      "max": [
        0.3864189386367798,
        0.9881941080093384
      ],
      "min": [
        0.034231558442115784,
        0.7706747055053711
      ],
      "type": "VEC2"
    },
    {
      "bufferView": 0,
      "byteOffset": 40356,
      "componentType": 5125,
      "count": 3840,
      "type": "SCALAR"
    },
    {
      "bufferView": 2,
      "byteOffset": 60984,
      "componentType": 5126,
      "count": 1108,
      "max": [
        150.6293487548828,
        -166.4402313232422,
        416.493896484375
      ],
      "min": [
        -122.70536804199219,
        -656.197021484375,
        166.16001892089844
      ],
      "type": "VEC3"
    },
    {
      "bufferView": 2,
      "byteOffset": 74280,
      "componentType": 5126,
      "count": 1108,
      "max": [
        0.9951897263526917,
        0.9999979734420776,
        0.9999778270721436
      ],
      "min": [
        -0.9955072402954102,
        -0.9989791512489319,
        -0.9999997615814209
      ],
      "type": "VEC3"
    },
    {
      "bufferView": 1,
      "byteOffset": 20328,
      "componentType": 5126,
      "count": 1108,
      "max": [
        0.9764013290405273,
        0.7591838240623474
      ],
      "min": [
        0.019999999552965164,
        0.019999999552965164
      ],
      "type": "VEC2"
    },
    {
      "bufferView": 0,
      "byteOffset": 55716,
      "componentType": 5125,
      "count": 6000,
      "type": "SCALAR"
    },
    {
      "bufferView": 2,
      "byteOffset": 87576,
      "componentType": 5126,
      "count": 342,
      "max": [
        74.79116821289063,
        -196.04530334472656,
        510.5776062011719
      ],
      "min": [
        17.406400680541992,
        -297.95257568359375,
        411.7493896484375
      ],
      "type": "VEC3"
    },
    {
      "bufferView": 2,
      "byteOffset": 91680,
      "componentType": 5126,
      "count": 342,
      "max": [
        0.9982853531837463,
        0.9526655077934265,
        0.9985211491584778
      ],
      "min": [
        -0.7867213487625122,
        -0.8111056089401245,
        -0.9820296168327332
      ],
      "type": "VEC3"
    },
    {
      "bufferView": 1,
      "byteOffset": 29192,
      "componentType": 5126,
      "count": 342,
      "max": [
        0.41130000352859497,
        0.46369999647140503
      ],
      "min": [
        0.18469999730587006,
        0.30140000581741333
      ],
      "type": "VEC2"
    },
    {
      "bufferView": 0,
      "byteOffset": 79716,
      "componentType": 5125,
      "count": 1584,
      "type": "SCALAR"
    },
    {
      "bufferView": 2,
      "byteOffset": 95784,
      "componentType": 5126,
      "count": 1680,
      "max": [
        71.01614379882813,
        -198.54823303222656,
        503.8485107421875
      ],
      "min": [
        -54.892696380615234,
        -496.10308837890625,
        397.56201171875
      ],
      "type": "VEC3"
    },
    {
      "bufferView": 2,
      "byteOffset": 115944,
      "componentType": 5126,
      "count": 1680,
      "max": [
        0.998013973236084,
        0.9968132376670837,
        0.9997971653938293
      ],
      "min": [
        -0.9994699954986572,
        -0.9965342283248901,
        -0.9953384399414063
      ],
      "type": "VEC3"
    },
    {
      "bufferView": 1,
      "byteOffset": 31928,
      "componentType": 5126,
      "count": 1680,
      "max": [
        0.9863330721855164,
        0.9881941080093384
      ],
      "min": [
        0.034231558442115784,
        0.31563812494277954
      ],
      "type": "VEC2"
    },
    {
      "bufferView": 0,
      "byteOffset": 86052,
      "componentType": 5125,
      "count": 9600,
      "type": "SCALAR"
    }
  ],
  "asset": {
    "extras": {
      "author": "Anna.Espenstein (https://sketchfab.com/Anna.Espenstein)",
      "license": "CC-BY-4.0 (http://creativecommons.org/licenses/by/4.0/)",
      "source": "https://sketchfab.com/3d-models/handpainted-watercolor-cake-7f205e2fbfc14d209de9061be603b462",
      "title": "Handpainted watercolor cake"
    },
    "generator": "Sketchfab-15.24.0",
    "version": "2.0"
  },
  "bufferViews": [
    {
      "buffer": 0,
      "byteLength": 124452,
      "name": "floatBufferViews",
      "target": 34963
    },
    {
      "buffer": 0,
      "byteLength": 45368,
      "byteOffset": 124452,
      "byteStride": 8,
      "name": "floatBufferViews",
      "target": 34962
    },
    {
      "buffer": 0,
      "byteLength": 136104,
      "byteOffset": 169820,
      "byteStride": 12,
      "name": "floatBufferViews",
      "target": 34962
    }
  ],
  "buffers": [
    {
      "byteLength": 305924,
      "uri": "scene.bin"
    }
  ],
  "extensionsUsed": [
    "KHR_materials_unlit"
  ],
  "images": [
    {
      "uri": "textures/cake_baseColor.png"
    }
  ],
  "materials": [
    {
      "doubleSided": true,
      "extensions": {
        "KHR_materials_unlit": {}
      },
      "name": "cake",
      "pbrMetallicRoughness": {
        "baseColorTexture": {
          "index": 0
        },
        "metallicFactor": 0.0
      }
    }
  ],
  "meshes": [
    {
      "name": "frosting001_cake_0",
      "primitives": [
        {
          "attributes": {
            "NORMAL": 1,
            "POSITION": 0,
            "TEXCOORD_0": 2
          },
          "indices": 3,
          "material": 0,
          "mode": 4
        }
      ]
    },
    {
      "name": "leaves003_cake_0",
      "primitives": [
        {
          "attributes": {
            "NORMAL": 5,
            "POSITION": 4,
            "TEXCOORD_0": 6
          },
          "indices": 7,
          "material": 0,
          "mode": 4
        }
      ]
    },
    {
      "name": "blueberry001_cake_0",
      "primitives": [
        {
          "attributes": {
            "NORMAL": 9,
            "POSITION": 8,
            "TEXCOORD_0": 10
          },
          "indices": 11,
          "material": 0,
          "mode": 4
        }
      ]
    },
    {
      "name": "strawberry001_cake_0",
      "primitives": [
        {
          "attributes": {
            "NORMAL": 13,
            "POSITION": 12,
            "TEXCOORD_0": 14
          },
          "indices": 15,
          "material": 0,
          "mode": 4
        }
      ]
    },
    {
      "name": "cake001_cake_0",
      "primitives": [
        {
          "attributes": {
            "NORMAL": 17,
            "POSITION": 16,
            "TEXCOORD_0": 18
          },
          "indices": 19,
          "material": 0,
          "mode": 4
        }
      ]
    },
    {
      "name": "leaves004_cake_0",
      "primitives": [
        {
          "attributes": {
            "NORMAL": 21,
            "POSITION": 20,
            "TEXCOORD_0": 22
          },
          "indices": 23,
          "material": 0,
          "mode": 4
        }
      ]
    },
    {
      "name": "berries001_cake_0",
      "primitives": [
        {
          "attributes": {
            "NORMAL": 25,
            "POSITION": 24,
            "TEXCOORD_0": 26
          },
          "indices": 27,
          "material": 0,
          "mode": 4
        }
      ]
    }
  ],
  "nodes": [
    {
      "children": [
        1
      ],
      "matrix": [
        1.0,
        0.0,
        0.0,
        0.0,
        0.0,
        2.220446049250313e-16,
        -1.0,
        0.0,
        0.0,
        1.0,
        2.220446049250313e-16,
        0.0,
        0.0,
        0.0,
        0.0,
        1.0
      ],
      "name": "Sketchfab_model"
    },
    {
      "children": [
        2
      ],
      "matrix": [
        0.009999999776482582,
        0.0,
        0.0,
        0.0,
        0.0,
        0.0,
        0.009999999776482582,
        0.0,
        0.0,
        -0.009999999776482582,
        0.0,
        0.0,
        0.0,
        0.0,
        0.0,
        1.0
      ],
      "name": "watercolor cake.fbx"
    },
    {
      "children": [
        3,
        5,
        7,
        9,
        11,
        13,
        15
      ],
      "name": "RootNode"
    },
    {
      "children": [
        4
      ],
      "matrix": [
        1.0,
        0.0,
        0.0,
        0.0,
        0.0,
        2.220446049250313e-16,
        -1.0,
        0.0,
        0.0,
        1.0,
        2.220446049250313e-16,
        0.0,
        -22.31512451171875,
        -155.9202880859375,
        -340.0877685546875,
        1.0
      ],
      "name": "frosting001"
    },
    {
      "mesh": 0,
      "name": "frosting001_cake_0"
    },
    {
      "children": [
        6
      ],
      "matrix": [
        1.0,
        0.0,
        0.0,
        0.0,
        0.0,
        2.220446049250313e-16,
        -1.0,
        0.0,
        0.0,
        1.0,
        2.220446049250313e-16,
        0.0,
        -22.31512451171875,
        -155.9202880859375,
        -340.0877685546875,
        1.0
      ],
      "name": "leaves003"
    },
    {
      "mesh": 1,
      "name": "leaves003_cake_0"
    },
    {
      "children": [
        8
      ],
      "matrix": [
        1.0,
        0.0,
        0.0,
        0.0,
        0.0,
        2.220446049250313e-16,
        -1.0,
        0.0,
        0.0,
        1.0,
        2.220446049250313e-16,
        0.0,
        -22.31512451171875,
        -155.9202880859375,
        -340.0877685546875,
        1.0
      ],
      "name": "blueberry001"
    },
    {
      "mesh": 2,
      "name": "blueberry001_cake_0"
    },
    {
      "children": [
        10
      ],
      "matrix": [
        1.0,
        0.0,
        0.0,
        0.0,
        0.0,
        2.220446049250313e-16,
        -1.0,
        0.0,
        0.0,
        1.0,
        2.220446049250313e-16,
        0.0,
        -22.31512451171875,
        -155.9202880859375,
        -340.0877685546875,
        1.0
      ],
      "name": "strawberry001"
    },
    {
      "mesh": 3,
      "name": "strawberry001_cake_0"
    },
    {
      "children": [
        12
      ],
      "matrix": [
        1.0,
        0.0,
        0.0,
        0.0,
        0.0,
        2.220446049250313e-16,
        -1.0,
        0.0,
        0.0,
        1.0,
        2.220446049250313e-16,
        0.0,
        -22.31512451171875,
        -155.9202880859375,
        -340.0877685546875,
        1.0
      ],
      "name": "cake001"
    },
    {
      "mesh": 4,
      "name": "cake001_cake_0"
    },
    {
      "children": [
        14
      ],
      "matrix": [
        1.0,
        0.0,
        0.0,
        0.0,
        0.0,
        2.220446049250313e-16,
        -1.0,
        0.0,
        0.0,
        1.0,
        2.220446049250313e-16,
        0.0,
        -22.31512451171875,
        -155.9202880859375,
        -340.0877685546875,
        1.0
      ],
      "name": "leaves004"
    },
    {
      "mesh": 5,
      "name": "leaves004_cake_0"
    },
    {
      "children": [
        16
      ],
      "matrix": [
        1.0,
        0.0,
        0.0,
        0.0,
        0.0,
        2.220446049250313e-16,
        -1.0,
        0.0,
        0.0,
        1.0,
        2.220446049250313e-16,
        0.0,
        -22.31512451171875,
        -155.9202880859375,
        -340.0877685546875,
        1.0
      ],
      "name": "berries001"
    },
    {
      "mesh": 6,
      "name": "berries001_cake_0"
    }
  ],
  "samplers": [
    {
      "magFilter": 9729,
      "minFilter": 9987,
      "wrapS": 10497,
      "wrapT": 10497
    }
  ],
  "scene": 0,
  "scenes": [
    {
      "name": "Sketchfab_Scene",
      "nodes": [
        0
      ]
    }
  ],
  "textures": [
    {
      "sampler": 0,
      "source": 0
    }
  ]
}
